<?xml version="1.0" encoding="UTF-8" standalone="no"?>
<!-- Created with Inkscape (http://www.inkscape.org/) -->

<svg
   width="120mm"
   height="120mm"
   viewBox="0 0 120 120"
   version="1.1"
   id="svg5"
   xml:space="preserve"
   sodipodi:docname="tank.svg"
   inkscape:version="1.2.2 (b0a84865, 2022-12-01)"
   xmlns:inkscape="http://www.inkscape.org/namespaces/inkscape"
   xmlns:sodipodi="http://sodipodi.sourceforge.net/DTD/sodipodi-0.dtd"
   xmlns="http://www.w3.org/2000/svg"
   xmlns:svg="http://www.w3.org/2000/svg"><sodipodi:namedview
     id="namedview7"
     pagecolor="#ffffff"
     bordercolor="#000000"
     borderopacity="0.25"
     inkscape:showpageshadow="2"
     inkscape:pageopacity="0.0"
     inkscape:pagecheckerboard="0"
     inkscape:deskcolor="#d1d1d1"
     inkscape:document-units="mm"
     showgrid="false"
     inkscape:zoom="0.53988207"
     inkscape:cx="196.33917"
     inkscape:cy="33.340614"
     inkscape:window-width="1337"
     inkscape:window-height="670"
     inkscape:window-x="0"
     inkscape:window-y="37"
     inkscape:window-maximized="0"
     inkscape:current-layer="layer1" /><defs
     id="defs2" /><g
     inkscape:label="Layer 1"
     inkscape:groupmode="layer"
     id="layer1"><g
       id="g13200"
       transform="matrix(1.1086464,0,0,1,-55.912315,8.1872623)"><rect
         style="fill:#000000;stroke-width:0.78768"
         id="rect231"
         width="72.267342"
         height="4.4583287"
         x="68.325256"
         y="41.55864" /><rect
         style="fill:#000000;stroke-width:0.78768"
         id="rect233"
         width="72.267342"
         height="4.4583287"
         x="68.325256"
         y="41.55864" /><rect
         style="fill:#93c40a;fill-opacity:1;stroke-width:0.78768"
         id="rect235"
         width="72.267342"
         height="4.4583287"
         x="68.325256"
         y="41.55864" /><rect
         style="fill:#93c40a;fill-opacity:1;stroke-width:0.843276"
         id="rect2727"
         width="40.628475"
         height="6.9032259"
         x="77.898628"
         y="35.086876" /><rect
         style="fill:#93c40a;fill-opacity:1;stroke-width:0.78768"
         id="rect2729"
         width="27.435892"
         height="8.7728443"
         x="84.319801"
         y="27.46456" /><ellipse
         style="fill:#93c40a;fill-opacity:1;stroke-width:1.12813"
         id="path2791"
         cx="84.144691"
         cy="34.511597"
         rx="6.2460456"
         ry="7.04704" /><ellipse
         style="fill:#93c40a;fill-opacity:1;stroke-width:1.12813"
         id="path2791-4"
         cx="112.33944"
         cy="34.511604"
         rx="6.2460456"
         ry="7.04704" /><rect
         style="fill:#93c40a;fill-opacity:1;stroke-width:0.824631"
         id="rect3597"
         width="27.906805"
         height="3.4501591"
         x="113.95234"
         y="41.551888"
         ry="0"
         transform="matrix(0.99745048,-0.07136199,0.05653336,0.99840071,0,0)" /><rect
         style="fill:#93c40a;fill-opacity:1;stroke-width:0.78784"
         id="rect3599"
         width="8.7666168"
         height="5.8918481"
         x="139.66528"
         y="41.893978"
         transform="matrix(0.99649065,-0.0837042,0.0552702,0.99847143,0,0)" /><rect
         style="fill:#93c40a;fill-opacity:1;stroke-width:0.78768"
         id="rect3601"
         width="78.104752"
         height="3.8830631"
         x="65.523293"
         y="48.605675" /><rect
         style="fill:#93c40a;fill-opacity:1;stroke-width:0.78768"
         id="rect3601-9"
         width="78.104752"
         height="3.8830631"
         x="65.329765"
         y="73.98941" /><path
         id="path3603"
         style="fill:#93c40a;fill-opacity:1;stroke-width:0.785757"
         d="M 66.438672,48.461371 A 11.908348,14.669347 0 0 0 54.530522,63.13048 11.908348,14.669347 0 0 0 66.438672,77.801294 11.908348,14.669347 0 0 0 78.346823,63.13048 11.908348,14.669347 0 0 0 66.438672,48.461371 Z m -0.116433,7.622267 a 5.4871798,6.6155887 0 0 1 5.487647,6.616552 5.4871798,6.6155887 0 0 1 -5.487647,6.614843 5.4871798,6.6155887 0 0 1 -5.487647,-6.614843 5.4871798,6.6155887 0 0 1 5.487647,-6.616552 z" /><path
         id="path3603-3"
         style="fill:#93c40a;fill-opacity:1;stroke-width:0.785757"
         d="M 91.101661,48.491179 A 11.908348,14.669347 0 0 0 79.193511,63.160287 11.908348,14.669347 0 0 0 91.101661,77.831101 11.908348,14.669347 0 0 0 103.00981,63.160287 11.908348,14.669347 0 0 0 91.101661,48.491179 Z m -0.116438,7.622266 a 5.4871798,6.6155887 0 0 1 5.487646,6.616552 5.4871798,6.6155887 0 0 1 -5.487646,6.614843 5.4871798,6.6155887 0 0 1 -5.487647,-6.614843 5.4871798,6.6155887 0 0 1 5.487647,-6.616552 z" /><path
         id="path11685"
         style="fill:#93c40a;fill-opacity:1;stroke-width:0.785757"
         d="M 116.38585,48.723613 A 11.908348,14.669347 0 0 0 104.47769,63.392722 11.908348,14.669347 0 0 0 116.38585,78.063536 11.908348,14.669347 0 0 0 128.294,63.392722 11.908348,14.669347 0 0 0 116.38585,48.723613 Z m -0.11644,7.622267 a 5.4871798,6.6155887 0 0 1 5.48764,6.616551 5.4871798,6.6155887 0 0 1 -5.48764,6.614844 5.4871798,6.6155887 0 0 1 -5.48765,-6.614844 5.4871798,6.6155887 0 0 1 5.48765,-6.616551 z" /><path
         id="path11687"
         style="fill:#93c40a;fill-opacity:1;stroke-width:0.785757"
         d="m 141.85872,48.723613 a 11.908348,14.669347 0 0 0 -11.90815,14.669109 11.908348,14.669347 0 0 0 11.90815,14.670814 11.908348,14.669347 0 0 0 11.90815,-14.670814 11.908348,14.669347 0 0 0 -11.90815,-14.669109 z m -0.11644,7.622267 a 5.4871798,6.6155887 0 0 1 5.48764,6.616551 5.4871798,6.6155887 0 0 1 -5.48764,6.614844 5.4871798,6.6155887 0 0 1 -5.48765,-6.614844 5.4871798,6.6155887 0 0 1 5.48765,-6.616551 z" /></g></g></svg>
